/* XPM */
static char * 1Active_xpm[] = {
"13 13 52 1",
" 	c None",
".	c #797879",
"+	c #797978",
"@	c #797878",
"#	c #747373",
"$	c #6F6D6E",
"%	c #6F6E6E",
"&	c #3F3C3C",
"*	c #6E6E6E",
"=	c #6A6969",
"-	c #696968",
";	c #1084C2",
">	c #1084C1",
",	c #646463",
"'	c #646363",
")	c #1779AE",
"!	c #177AAE",
"~	c #177AAF",
"{	c #656363",
"]	c #5F5E5E",
"^	c #5F5E5F",
"/	c #313131",
"(	c #1E6F9B",
"_	c #5A5959",
":	c #256588",
"<	c #256488",
"[	c #246588",
"}	c #256587",
"|	c #595959",
"1	c #545453",
"2	c #555453",
"3	c #2B5A75",
"4	c #2C5A75",
"5	c #2C5A74",
"6	c #2B5A74",
"7	c #2B5B75",
"8	c #4F4F4E",
"9	c #4F4E4E",
"0	c #325061",
"a	c #325060",
"b	c #4A494A",
"c	c #4A4949",
"d	c #1F1717",
"e	c #39454E",
"f	c #38464E",
"g	c #39464D",
"h	c #444444",
"i	c #454444",
"j	c #3F3F3F",
"k	c #403F3F",
"l	c #3A3A3A",
"m	c #3A3A39",
".+.+.+.+.+.+@",
"#############",
"$%$&&&&&&&$%*",
"=-&;;;>>>;&-=",
",'&)))!)!~&'{",
"]^/(((((((/^]",
"__/:<::[}:/_|",
"12/3456657/21",
"89/00a0000/98",
"bcdefeeegedcc",
"hihdddddddhii",
"jjjjjjjjjjjjk",
"llllllllllllm"};
