/* XPM */
static char * 1Inactive_xpm[] = {
"13 13 63 1",
" 	c None",
".	c #797879",
"+	c #797978",
"@	c #797878",
"#	c #747373",
"$	c #6F6D6E",
"%	c #6F6E6E",
"&	c #3F3C3C",
"*	c #6E6E6E",
"=	c #6A6969",
"-	c #696968",
";	c #2560A4",
">	c #2660A4",
",	c #2661A3",
"'	c #2560A3",
")	c #2661A4",
"!	c #646463",
"~	c #646363",
"{	c #285C97",
"]	c #295C96",
"^	c #295B96",
"/	c #2A5B95",
"(	c #656363",
"_	c #5F5E5E",
":	c #5F5E5F",
"<	c #313131",
"[	c #2C5788",
"}	c #2D5788",
"|	c #2D5687",
"1	c #2D5686",
"2	c #5A5959",
"3	c #305178",
"4	c #305177",
"5	c #315077",
"6	c #595959",
"7	c #545453",
"8	c #555453",
"9	c #344C69",
"0	c #344C68",
"a	c #344B68",
"b	c #4F4F4E",
"c	c #4F4E4E",
"d	c #38465A",
"e	c #37465A",
"f	c #384759",
"g	c #384659",
"h	c #374559",
"i	c #384658",
"j	c #4A494A",
"k	c #4A4949",
"l	c #1F1717",
"m	c #3B414B",
"n	c #3B414A",
"o	c #3C414A",
"p	c #3C4149",
"q	c #3B4049",
"r	c #3C4049",
"s	c #444444",
"t	c #454444",
"u	c #3F3F3F",
"v	c #403F3F",
"w	c #3A3A3A",
"x	c #3A3A39",
".+.+.+.+.+.+@",
"#############",
"$%$&&&&&&&$%*",
"=-&;>;;,')&-=",
"!~&{{]]]^/&~(",
"_:<[}||1|1<:_",
"22<3334445<26",
"78<990aaaa<87",
"bc<defgghi<cb",
"jklmnonpqrlkk",
"stslllllllstt",
"uuuuuuuuuuuuv",
"wwwwwwwwwwwwx"};
