/* XPM */
static char * 2Active_xpm[] = {
"13 13 62 1",
" 	c None",
".	c #797879",
"+	c #797978",
"@	c #797878",
"#	c #747373",
"$	c #6F6D6E",
"%	c #6F6E6E",
"&	c #3F3C3C",
"*	c #6E6E6E",
"=	c #6A6969",
"-	c #696968",
";	c #F6770B",
">	c #F5760B",
",	c #F6760A",
"'	c #F5770B",
")	c #646463",
"!	c #646363",
"~	c #DD6E12",
"{	c #DC6F11",
"]	c #DC6E11",
"^	c #DB6E12",
"/	c #DC6E12",
"(	c #656363",
"_	c #5F5E5E",
":	c #5F5E5F",
"<	c #313131",
"[	c #C26618",
"}	c #C26619",
"|	c #C16619",
"1	c #C16519",
"2	c #5A5959",
"3	c #A95E20",
"4	c #A95E1F",
"5	c #A85D20",
"6	c #A85E1F",
"7	c #A75E20",
"8	c #A75D1F",
"9	c #595959",
"0	c #545453",
"a	c #555453",
"b	c #8F5526",
"c	c #8E5626",
"d	c #8E5526",
"e	c #8E5527",
"f	c #4F4F4E",
"g	c #4F4E4E",
"h	c #754D2D",
"i	c #744D2D",
"j	c #744C2E",
"k	c #4A494A",
"l	c #4A4949",
"m	c #1F1717",
"n	c #5C4534",
"o	c #5B4534",
"p	c #5A4434",
"q	c #5A4534",
"r	c #444444",
"s	c #454444",
"t	c #3F3F3F",
"u	c #403F3F",
"v	c #3A3A3A",
"w	c #3A3A39",
".+.+.+.+.+.+@",
"#############",
"$%$&&&&&&&$%*",
"=-&;>;,>'>&-=",
")!&~{]]^/^&!(",
"_:<[[}[}|1<:_",
"22<3456578<29",
"0a<bbcdedd<a0",
"fg<hhihiij<gf",
"klmnoopqppmll",
"rsrmmmmmmmrss",
"ttttttttttttu",
"vvvvvvvvvvvvw"};
