/* XPM */
static char * 2Inactive_xpm[] = {
"13 13 61 1",
" 	c None",
".	c #797879",
"+	c #797978",
"@	c #797878",
"#	c #747373",
"$	c #6F6D6E",
"%	c #6F6E6E",
"&	c #3F3C3C",
"*	c #6E6E6E",
"=	c #6A6969",
"-	c #696968",
";	c #BB5E0E",
">	c #BA5E0F",
",	c #BB5E0F",
"'	c #646463",
")	c #646363",
"!	c #AA5915",
"~	c #AB5A15",
"{	c #AB5914",
"]	c #AB5A14",
"^	c #656363",
"/	c #5F5E5E",
"(	c #5F5E5F",
"_	c #313131",
":	c #97541B",
"<	c #98541B",
"[	c #99551C",
"}	c #98551B",
"|	c #99541B",
"1	c #5A5959",
"2	c #854F23",
"3	c #864F22",
"4	c #855022",
"5	c #854F22",
"6	c #874F22",
"7	c #595959",
"8	c #545453",
"9	c #555453",
"0	c #734A29",
"a	c #724A29",
"b	c #734A28",
"c	c #744A28",
"d	c #4F4F4E",
"e	c #4F4E4E",
"f	c #604430",
"g	c #61452F",
"h	c #60452F",
"i	c #604530",
"j	c #4A494A",
"k	c #4A4949",
"l	c #1F1717",
"m	c #4D3F36",
"n	c #4E3F37",
"o	c #4E4036",
"p	c #4F4036",
"q	c #444444",
"r	c #454444",
"s	c #3F3F3F",
"t	c #403F3F",
"u	c #3A3A3A",
"v	c #3A3A39",
".+.+.+.+.+.+@",
"#############",
"$%$&&&&&&&$%*",
"=-&;>,,,,;&-=",
"')&!~!{~]{&)^",
"/(_:<<[}}|_(/",
"11_2345336_17",
"89_0a00bcc_98",
"de_ffghigg_ed",
"jklmnooopplkk",
"qrqlllllllqrr",
"sssssssssssst",
"uuuuuuuuuuuuv"};
