/* XPM */
static char * 4Active_xpm[] = {
"13 13 68 1",
" 	c None",
".	c #797879",
"+	c #797978",
"@	c #797878",
"#	c #747373",
"$	c #6F6D6E",
"%	c #6F6E6E",
"&	c #3F3C3C",
"*	c #6E6E6E",
"=	c #6A6969",
"-	c #696968",
";	c #B0B91B",
">	c #AFB91B",
",	c #B0B81B",
"'	c #646463",
")	c #646363",
"!	c #A1A91F",
"~	c #A1A820",
"{	c #A1A81F",
"]	c #A1A71F",
"^	c #9FA71F",
"/	c #9FA720",
"(	c #656363",
"_	c #5F5E5E",
":	c #5F5E5F",
"<	c #313131",
"[	c #919724",
"}	c #909624",
"|	c #909524",
"1	c #8F9425",
"2	c #8F9424",
"3	c #5A5959",
"4	c #818429",
"5	c #808329",
"6	c #808429",
"7	c #7F8329",
"8	c #595959",
"9	c #545453",
"0	c #555453",
"a	c #70722D",
"b	c #70712E",
"c	c #6F712E",
"d	c #6F712D",
"e	c #6F702D",
"f	c #6F702E",
"g	c #4F4F4E",
"h	c #4F4E4E",
"i	c #605F32",
"j	c #5F6032",
"k	c #5F5F32",
"l	c #5F5F33",
"m	c #5E5E32",
"n	c #5E5E33",
"o	c #5E5D33",
"p	c #4A494A",
"q	c #4A4949",
"r	c #1F1717",
"s	c #4F4D37",
"t	c #4F4E37",
"u	c #4E4D37",
"v	c #4E4C37",
"w	c #4D4B37",
"x	c #444444",
"y	c #454444",
"z	c #3F3F3F",
"A	c #403F3F",
"B	c #3A3A3A",
"C	c #3A3A39",
".+.+.+.+.+.+@",
"#############",
"$%$&&&&&&&$%*",
"=-&;;>>,>;&-=",
"')&!~{]^/^&)(",
"_:<[}}}|12<:_",
"33<4567777<38",
"90<abcbdef<09",
"gh<ijklmno<hg",
"pqrstusvvwrqq",
"xyxrrrrrrrxyy",
"zzzzzzzzzzzzA",
"BBBBBBBBBBBBC"};
