/* XPM */
static char * 4Inactive_xpm[] = {
"13 13 60 1",
" 	c None",
".	c #797879",
"+	c #797978",
"@	c #797878",
"#	c #747373",
"$	c #6F6D6E",
"%	c #6F6E6E",
"&	c #3F3C3C",
"*	c #6E6E6E",
"=	c #6A6969",
"-	c #696968",
";	c #999F31",
">	c #989F32",
",	c #999F32",
"'	c #646463",
")	c #646363",
"!	c #8E9333",
"~	c #8D9233",
"{	c #8D9232",
"]	c #8E9233",
"^	c #8D9333",
"/	c #656363",
"(	c #5F5E5E",
"_	c #5F5E5F",
":	c #313131",
"<	c #7F8334",
"[	c #808334",
"}	c #808335",
"|	c #808435",
"1	c #5A5959",
"2	c #727536",
"3	c #737536",
"4	c #727535",
"5	c #737435",
"6	c #727436",
"7	c #595959",
"8	c #545453",
"9	c #555453",
"0	c #666637",
"a	c #656637",
"b	c #656537",
"c	c #4F4F4E",
"d	c #4F4E4E",
"e	c #585739",
"f	c #585738",
"g	c #585839",
"h	c #4A494A",
"i	c #4A4949",
"j	c #1F1717",
"k	c #4A483A",
"l	c #4B493A",
"m	c #4B483A",
"n	c #4A493B",
"o	c #4A493A",
"p	c #444444",
"q	c #454444",
"r	c #3F3F3F",
"s	c #403F3F",
"t	c #3A3A3A",
"u	c #3A3A39",
".+.+.+.+.+.+@",
"#############",
"$%$&&&&&&&$%*",
"=-&;>;,,;,&-=",
"')&!~{]~~^&)/",
"(_:<[}<[|}:_(",
"11:2345265:17",
"89:00aabaa:98",
"cd:efefgee:dc",
"hijklmmnkojii",
"pqpjjjjjjjpqq",
"rrrrrrrrrrrrs",
"ttttttttttttu"};
