/* XPM */
static char * 6Active_xpm[] = {
"13 13 57 1",
" 	c None",
".	c #797879",
"+	c #797978",
"@	c #797878",
"#	c #747373",
"$	c #6F6D6E",
"%	c #6F6E6E",
"&	c #3F3C3C",
"*	c #6E6E6E",
"=	c #6A6969",
"-	c #696968",
";	c #45B71E",
">	c #45B71F",
",	c #646463",
"'	c #646363",
")	c #45A722",
"!	c #44A722",
"~	c #44A822",
"{	c #656363",
"]	c #5F5E5E",
"^	c #5F5E5F",
"/	c #313131",
"(	c #449526",
"_	c #439526",
":	c #439626",
"<	c #449626",
"[	c #5A5959",
"}	c #43832B",
"|	c #43832A",
"1	c #42832B",
"2	c #43842A",
"3	c #595959",
"4	c #545453",
"5	c #555453",
"6	c #41712F",
"7	c #41712E",
"8	c #42722E",
"9	c #42712E",
"0	c #42712F",
"a	c #4F4F4E",
"b	c #4F4E4E",
"c	c #415F33",
"d	c #406033",
"e	c #416033",
"f	c #4A494A",
"g	c #4A4949",
"h	c #1F1717",
"i	c #404D38",
"j	c #3F4E37",
"k	c #404E38",
"l	c #404D37",
"m	c #444444",
"n	c #454444",
"o	c #3F3F3F",
"p	c #403F3F",
"q	c #3A3A3A",
"r	c #3A3A39",
".+.+.+.+.+.+@",
"#############",
"$%$&&&&&&&$%*",
"=-&;;;>;;;&-=",
",'&)!)!!!~&'{",
"]^/(_:<(_(/^]",
"[[/}|}1|}2/[3",
"45/6789096/54",
"ab/ccccdce/ba",
"fghiijikllhgg",
"mnmhhhhhhhmnn",
"oooooooooooop",
"qqqqqqqqqqqqr"};
