/* XPM */
static char * 6Inactive_xpm[] = {
"13 13 56 1",
" 	c None",
".	c #797879",
"+	c #797978",
"@	c #797878",
"#	c #747373",
"$	c #6F6D6E",
"%	c #6F6E6E",
"&	c #3F3C3C",
"*	c #6E6E6E",
"=	c #6A6969",
"-	c #696968",
";	c #349712",
">	c #349711",
",	c #339712",
"'	c #646463",
")	c #646363",
"!	c #358B17",
"~	c #358C17",
"{	c #656363",
"]	c #5F5E5E",
"^	c #5F5E5F",
"/	c #313131",
"(	c #377E1D",
"_	c #377D1D",
":	c #367E1D",
"<	c #367E1E",
"[	c #5A5959",
"}	c #387123",
"|	c #397124",
"1	c #387023",
"2	c #397123",
"3	c #595959",
"4	c #545453",
"5	c #555453",
"6	c #3A632A",
"7	c #3A6429",
"8	c #3A6329",
"9	c #4F4F4E",
"0	c #4F4E4E",
"a	c #3C5630",
"b	c #3C562F",
"c	c #3B5630",
"d	c #4A494A",
"e	c #4A4949",
"f	c #1F1717",
"g	c #3D4936",
"h	c #3D4835",
"i	c #3D4935",
"j	c #3E4935",
"k	c #3E4936",
"l	c #444444",
"m	c #454444",
"n	c #3F3F3F",
"o	c #403F3F",
"p	c #3A3A3A",
"q	c #3A3A39",
".+.+.+.+.+.+@",
"#############",
"$%$&&&&&&&$%*",
"=-&;>;,,,>&-=",
"')&!!~!!!!&){",
"]^/(_:((<(/^]",
"[[/}|}1122/[3",
"45/6776878/54",
"90/abbabac/09",
"defgghihjkfee",
"lmlffffffflmm",
"nnnnnnnnnnnno",
"ppppppppppppq"};
