/* XPM */
static char * MainInactive_xpm[] = {
"13 13 57 1",
" 	c None",
".	c #797879",
"+	c #797978",
"@	c #797878",
"#	c #7A7978",
"$	c #747373",
"%	c #737373",
"&	c #6F6D6E",
"*	c #6F6E6E",
"=	c #6E6E6E",
"-	c #6E6D6E",
";	c #6E6E6D",
">	c #6A6969",
",	c #696968",
"'	c #6A6868",
")	c #696969",
"!	c #6A6869",
"~	c #646463",
"{	c #646363",
"]	c #656363",
"^	c #646364",
"/	c #646464",
"(	c #656463",
"_	c #5F5E5E",
":	c #5F5E5F",
"<	c #5E5E5E",
"[	c #5F5F5E",
"}	c #5A5959",
"|	c #595959",
"1	c #595859",
"2	c #545453",
"3	c #555453",
"4	c #555454",
"5	c #545454",
"6	c #545353",
"7	c #545354",
"8	c #4F4F4E",
"9	c #4F4E4E",
"0	c #4F4F4F",
"a	c #4F4E4F",
"b	c #4A494A",
"c	c #4A4949",
"d	c #49494A",
"e	c #4A4A4A",
"f	c #4A4A49",
"g	c #444444",
"h	c #454444",
"i	c #3F3F3F",
"j	c #403F3F",
"k	c #403F3E",
"l	c #3F3F3E",
"m	c #403E3F",
"n	c #3F3E3F",
"o	c #3A3A3A",
"p	c #3A393A",
"q	c #3A3939",
"r	c #3A3A39",
".++@@@+#.@.@@",
"$$$$$$$$$%$$$",
"&*=*&**-=;=;=",
">,',>),'),)!>",
"~{]^^^]/(~{~]",
"_:<[__<______",
"}}}|}}1|}}}}|",
"2334324567442",
"8999980a88a98",
"bcddcefbbcccc",
"ghhghhhhhhhgh",
"iijikiliiminj",
"oopqoopoprprr"};
