/* XPM */
static char * 2Active_xpm[] = {
"16 16 3 1",
" 	c None",
".	c #222222",
"+	c #AF5F00",
"................",
"................",
"...........+...+",
"............+.+.",
"...++++++++..+..",
"..+.........+.+.",
"..+........+...+",
"..+..........+..",
"..+..........+..",
"+...+........+..",
".+.+.........+..",
"..+..++++++++...",
".+.+............",
"+...+...........",
"................",
"................"};
