/* XPM */
static char * 6Active_xpm[] = {
"16 16 3 1",
" 	c None",
".	c #222222",
"+	c #00875F",
"................",
"................",
"................",
"....++++++++++..",
"...+..........+.",
"...+..........+.",
"...+..........+.",
"..............+.",
".+++++........+.",
"..+++.........+.",
"...+...+++++++..",
"................",
".+++++..........",
"................",
"................",
"................"};
