/* XPM */
static char * 2Inactive_xpm[] = {
"13 13 3 1",
" 	c None",
".	c #2c2c2c",
"+	c #939cb3",
".............",
".............",
".............",
".............",
".............",
"....+++......",
"....+++......",
"....+++......",
".............",
".............",
".............",
".............",
"............."};
