/* XPM */
static char * 6Inactive_xpm[] = {
"13 13 3 1",
" 	c None",
".	c #2c2c2c",
"+	c #939cb3",
".............",
".............",
".............",
".............",
".............",
"....+++......",
"....+++......",
"....+++......",
".............",
".............",
".............",
".............",
"............."};
